<svg width="219" height="81" viewBox="0 0 219 81" fill="none" xmlns="http://www.w3.org/2000/svg">
<g clip-path="url(#clip0_1432_12438)">
<path d="M198.792 30.2516C207.058 20.81 207.226 21.9188 207.091 17.3828C206.99 13.5524 203.093 8.94916 197.515 10.1924C194.189 10.898 189.182 13.5188 187.67 7.23556C186.797 3.57316 191.467 0.952358 197.213 0.414758C209.074 -0.694042 218.28 7.13476 218.717 16.7444C219.019 23.498 216.298 25.8164 208.402 35.258C205.344 38.9204 201.682 43.49 201.749 47.7908C201.782 50.2436 201.816 47.9588 201.917 51.3188C202.018 54.3764 199.632 56.8964 196.574 56.9972C193.55 57.098 191.03 54.7124 190.93 51.6884C190.829 48.3956 190.795 50.4452 190.661 46.4804C190.426 39.9956 195.13 34.4852 198.792 30.2852V30.2516Z" fill="url(#paint0_linear_1432_12438)"/>
<path d="M66.4418 59.0455C66.4418 58.2391 66.5426 57.4999 66.7106 56.8279C66.9122 56.1559 67.2482 55.5511 67.7858 55.0471C68.3234 54.5431 69.0626 54.1399 70.037 53.8375C71.0114 53.5351 72.2546 53.4007 73.733 53.4007H119.127C120.639 53.4007 121.882 53.5351 122.823 53.8375C123.797 54.1399 124.536 54.5431 125.074 55.0471C125.611 55.5511 125.981 56.1559 126.149 56.8279C126.317 57.4999 126.418 58.2391 126.418 59.0455C126.418 59.6839 126.317 60.3559 126.149 61.0279C125.981 61.6999 125.611 62.3047 125.074 62.8087C124.536 63.3127 123.797 63.7495 122.823 64.0519C121.848 64.3879 120.605 64.5223 119.127 64.5223H103.301V73.6279C103.301 75.0391 103.099 76.1815 102.73 77.0887C102.36 77.9959 101.856 78.7351 101.285 79.2727C100.68 79.8103 100.008 80.1799 99.2354 80.4151C98.4626 80.6167 97.6226 80.7511 96.7826 80.7511C95.9426 80.7511 95.1026 80.6503 94.3298 80.4151C93.557 80.2135 92.8514 79.8103 92.2466 79.2727C91.6418 78.7351 91.1378 77.9959 90.8018 77.0887C90.4658 76.1815 90.2642 75.0055 90.2642 73.6279V64.5223H73.7666C72.2546 64.5223 71.0114 64.3543 70.0706 64.0519C69.0962 63.7159 68.357 63.3127 67.8194 62.8087C67.2818 62.3047 66.9122 61.6999 66.7442 61.0279C66.5426 60.3559 66.4754 59.6839 66.4754 59.0455H66.4418ZM73.0946 46.1431C71.6498 46.1431 70.5074 45.9751 69.701 45.6055C68.8946 45.2695 68.2898 44.7991 67.8866 44.2279C67.4834 43.6567 67.2146 43.0183 67.1138 42.2791C67.013 41.5399 66.9458 40.8007 66.9458 40.0615V7.73831C66.9458 5.05031 67.6178 3.20231 68.9282 2.22791C70.2386 1.21991 71.7506 0.749512 73.4978 0.749512H120.034C120.907 0.749512 121.714 0.850312 122.487 1.08551C123.259 1.28711 123.965 1.69031 124.536 2.22791C125.141 2.76551 125.611 3.50471 125.981 4.41191C126.351 5.31911 126.552 6.46151 126.552 7.80551V40.1623C126.552 40.9015 126.485 41.6407 126.384 42.3799C126.283 43.1191 126.015 43.7575 125.611 44.3287C125.208 44.8999 124.603 45.3367 123.763 45.7063C122.923 46.0423 121.815 46.2439 120.403 46.2439H73.061L73.0946 46.1431ZM80.0162 35.0215H113.482V11.8711H80.0162V35.0215Z" fill="url(#paint1_linear_1432_12438)"/>
<path d="M60.2929 73.4263C60.2929 74.2327 60.1921 74.9719 60.0241 75.6439C59.8225 76.3159 59.4865 76.9207 58.9489 77.4247C58.4113 77.9287 57.6721 78.3319 56.6977 78.6343C55.7233 78.9367 54.4801 79.0711 53.0017 79.0711H7.54089C6.02889 79.0711 4.7857 78.9367 3.84489 78.6343C2.87049 78.3319 2.13129 77.9287 1.59369 77.4247C1.05609 76.9207 0.686495 76.3159 0.518495 75.6439C0.350495 74.9719 0.249695 74.2327 0.249695 73.4263C0.249695 72.7879 0.350495 72.1159 0.518495 71.4439C0.686495 70.7719 1.05609 70.1671 1.59369 69.6631C2.13129 69.1591 2.87049 68.7223 3.84489 68.4199C4.81929 68.0839 6.06249 67.9495 7.54089 67.9495H23.3665V66.6727C23.3665 65.2615 23.5681 64.1191 23.9377 63.2119C24.3073 62.3047 24.8113 61.5655 25.3825 61.0279C25.9873 60.4903 26.6593 60.1207 27.4321 59.8855C28.2049 59.6839 29.0449 59.5495 29.8849 59.5495C30.7249 59.5495 31.5649 59.6503 32.3377 59.8855C33.1105 60.0871 33.8161 60.4903 34.4209 61.0279C35.0257 61.5655 35.5297 62.3047 35.8657 63.2119C36.2017 64.1191 36.4033 65.2951 36.4033 66.6727V67.9495H52.9009C54.4129 67.9495 55.6561 68.1175 56.5969 68.4199C57.5713 68.7559 58.3105 69.1591 58.8481 69.6631C59.3857 70.1671 59.7553 70.7719 59.9233 71.4439C60.1249 72.1159 60.1921 72.7879 60.1921 73.4263H60.2929ZM6.86889 57.3655C5.42409 57.3655 4.28169 57.1975 3.47529 56.8279C2.6689 56.4919 2.06409 56.0215 1.66089 55.4503C1.25769 54.8791 0.988895 54.2407 0.888095 53.5015C0.787295 52.7623 0.720095 52.0231 0.720095 51.2839V7.73831C0.753695 5.05031 1.42569 3.20231 2.73609 2.22791C4.04649 1.21991 5.55849 0.749512 7.30569 0.749512H53.8417C54.7153 0.749512 55.5217 0.850312 56.2945 1.08551C57.0673 1.28711 57.7729 1.69031 58.3441 2.22791C58.9489 2.76551 59.4193 3.50471 59.7889 4.41191C60.1585 5.31911 60.3601 6.46151 60.3601 7.80551V51.3847C60.3601 52.1239 60.2929 52.8631 60.1921 53.6023C60.0913 54.3415 59.8225 54.9799 59.4193 55.5511C59.0161 56.1223 58.4113 56.5591 57.5713 56.9287C56.7313 57.2647 55.6225 57.4663 54.2113 57.4663H6.86889V57.3655ZM13.8241 46.2439H47.2897V11.8711H13.8241V46.2439Z" fill="url(#paint2_linear_1432_12438)"/>
<path d="M153.096 33.1416C153.096 36.3 152.995 49.1352 152.76 51.42C152.559 53.7048 152.055 56.124 151.315 58.644C150.778 60.3576 150.106 62.0712 149.266 63.8184C148.426 65.532 147.519 67.1448 146.511 68.6568C145.503 70.1688 144.495 71.5128 143.419 72.7224C142.344 73.932 141.336 74.9064 140.362 75.6792C139.757 76.1496 139.119 76.4856 138.379 76.6536C137.64 76.8216 136.901 76.8552 136.095 76.7208C135.288 76.6536 134.482 76.3848 133.675 75.9144C132.869 75.444 132.231 74.6376 131.727 73.5624C131.122 72.1176 131.055 70.8744 131.458 69.7992C131.861 68.724 132.533 67.6824 133.44 66.6072C134.515 65.364 135.523 64.1544 136.431 62.9448C137.338 61.7352 138.211 60.324 139.018 58.7112C139.723 57.2664 140.227 55.8888 140.496 54.612C140.799 53.3352 141 52.0248 141.101 50.748C141.202 49.4712 141.235 48.1272 141.235 46.716C141.235 45.3048 141.202 33.6456 141.202 31.932V11.94H139.522C138.01 11.94 136.767 11.772 135.826 11.4696C134.851 11.1336 134.112 10.7304 133.575 10.2264C133.037 9.72236 132.667 9.11756 132.499 8.44556C132.298 7.77356 132.231 7.10156 132.231 6.46316C132.231 5.65676 132.331 4.91756 132.499 4.24556C132.701 3.57356 133.037 2.96876 133.575 2.46476C134.112 1.96076 134.851 1.55756 135.826 1.25516C136.8 0.952759 138.043 0.818359 139.522 0.818359H173.727C175.239 0.818359 176.482 0.952759 177.423 1.25516C178.363 1.55756 179.136 1.96076 179.674 2.46476C180.211 2.96876 180.581 3.57356 180.749 4.24556C180.951 4.91756 181.018 5.65676 181.018 6.46316C181.018 7.10156 180.917 7.77356 180.749 8.44556C180.547 9.11756 180.211 9.72236 179.674 10.2264C179.136 10.7304 178.397 11.1672 177.423 11.4696C176.448 11.8056 175.205 11.94 173.727 11.94H171.711V48.9C171.711 50.8488 171.879 52.6968 172.248 54.4776C172.584 56.2584 173.256 58.0056 174.197 59.7192C175.138 61.4328 176.549 63.2136 178.431 65.028C179.875 66.4728 180.984 67.9176 181.69 69.396C182.429 70.8408 182.295 72.42 181.32 74.1672C180.245 75.948 178.767 76.8888 176.885 76.9896C176.28 76.9896 175.709 76.9224 175.104 76.788C174.499 76.6536 173.962 76.3848 173.424 75.948C171.61 74.4024 170.199 72.8904 169.191 71.4792C168.183 70.068 167.175 68.4216 166.167 66.6072C165.259 68.3208 164.352 69.9 163.479 71.3112C162.605 72.7224 161.328 74.268 159.648 75.8808C159.043 76.4184 158.439 76.788 157.767 77.0232C157.095 77.2584 156.355 77.3592 155.549 77.4264C154.675 77.4936 153.869 77.292 153.063 76.8552C152.256 76.4184 151.551 75.6792 150.979 74.604C150.274 73.428 150.139 72.1848 150.543 70.8408C150.946 69.5304 151.853 68.052 153.231 66.4392C155.011 64.356 156.355 62.34 157.263 60.4584C158.17 58.5768 158.808 56.6952 159.211 54.78C159.581 52.8648 159.783 50.9496 159.816 48.9672C159.816 47.0184 159.85 34.788 159.85 32.5368V11.94H153.231V33.1416H153.096Z" fill="url(#paint3_linear_1432_12438)"/>
<path d="M197.28 77.3585C201.01 77.3585 204.034 74.3348 204.034 70.6049C204.034 66.875 201.01 63.8513 197.28 63.8513C193.55 63.8513 190.527 66.875 190.527 70.6049C190.527 74.3348 193.55 77.3585 197.28 77.3585Z" fill="url(#paint4_linear_1432_12438)"/>
</g>
<defs>
<linearGradient id="paint0_linear_1432_12438" x1="184.866" y1="-6.5479" x2="222.84" y2="-5.86962" gradientUnits="userSpaceOnUse">
<stop stop-color="#FF7E52"/>
<stop offset="0.5" stop-color="#FF4F14"/>
<stop offset="1" stop-color="#FF7E52"/>
</linearGradient>
<linearGradient id="paint1_linear_1432_12438" x1="61.2382" y1="-8.9281" x2="134.439" y2="-7.1416" gradientUnits="userSpaceOnUse">
<stop stop-color="#FF7E52"/>
<stop offset="0.5" stop-color="#FF4F14"/>
<stop offset="1" stop-color="#FF7E52"/>
</linearGradient>
<linearGradient id="paint2_linear_1432_12438" x1="-4.95389" y1="-8.72488" x2="68.2452" y2="-6.9001" gradientUnits="userSpaceOnUse">
<stop stop-color="#FF7E52"/>
<stop offset="0.5" stop-color="#FF4F14"/>
<stop offset="1" stop-color="#FF7E52"/>
</linearGradient>
<linearGradient id="paint3_linear_1432_12438" x1="126.792" y1="-8.45027" x2="188.855" y2="-7.10956" gradientUnits="userSpaceOnUse">
<stop stop-color="#FF7E52"/>
<stop offset="0.5" stop-color="#FF4F14"/>
<stop offset="1" stop-color="#FF7E52"/>
</linearGradient>
<linearGradient id="paint4_linear_1432_12438" x1="189.357" y1="62.2174" x2="205.798" y2="62.7514" gradientUnits="userSpaceOnUse">
<stop stop-color="#FF7E52"/>
<stop offset="0.5" stop-color="#FF4F14"/>
<stop offset="1" stop-color="#FF7E52"/>
</linearGradient>
<clipPath id="clip0_1432_12438">
<rect width="218.568" height="80.4384" fill="white" transform="translate(0.216003 0.280762)"/>
</clipPath>
</defs>
</svg>
