<svg width="60" height="60" viewBox="0 0 60 60" fill="none" xmlns="http://www.w3.org/2000/svg">
<g filter="url(#filter0_i_1723_16204)">
<path d="M55.3368 30.0607C57.4174 37.8256 69.2162 52.618 30.2962 52.618C-8.62374 52.618 3.26722 37.4817 5.25569 30.0607C7.42685 21.958 15.2306 11.178 30.2962 11.178C45.3619 11.178 53.2562 22.2959 55.3368 30.0607Z" fill="#FFF0EB"/>
</g>
<path d="M40.9209 32.5691C40.9209 34.2259 39.5778 35.5691 37.9209 35.5691C36.264 35.5691 34.9209 34.2259 34.9209 32.5691C34.9209 30.9122 36.264 29.5691 37.9209 29.5691C38.4046 29.5691 39.2507 29.5691 39.9213 29.5691C40.4736 29.5691 40.9209 30.0165 40.9209 30.5688C40.9209 31.2651 40.9209 32.1426 40.9209 32.5691Z" fill="#303030"/>
<path d="M18.9209 32.5691C18.9209 34.2259 20.264 35.5691 21.9209 35.5691C23.5778 35.5691 24.9209 34.2259 24.9209 32.5691C24.9209 30.9122 23.5778 29.5691 21.9209 29.5691C21.4372 29.5691 20.5911 29.5691 19.9205 29.5691C19.3682 29.5691 18.9209 30.0165 18.9209 30.5688C18.9209 31.2651 18.9209 32.1426 18.9209 32.5691Z" fill="#303030"/>
<path d="M53.1491 19.4023C54.0195 20.0824 54.184 21.3568 53.3554 22.0873C51.7793 23.4769 49.8245 24.3822 47.7343 24.6631C44.9853 25.0325 42.2271 24.2917 40.0666 22.6037C37.9062 20.9156 36.5203 18.4185 36.2139 15.6618C35.9809 13.5656 36.3865 11.4499 37.3536 9.58451C37.862 8.60389 39.1384 8.45524 40.0088 9.13531L46.579 14.2688L53.1491 19.4023Z" fill="#FFF6E0"/>
<defs>
<filter id="filter0_i_1723_16204" x="2" y="11.178" width="56.6323" height="41.44" filterUnits="userSpaceOnUse" color-interpolation-filters="sRGB">
<feFlood flood-opacity="0" result="BackgroundImageFix"/>
<feBlend mode="normal" in="SourceGraphic" in2="BackgroundImageFix" result="shape"/>
<feColorMatrix in="SourceAlpha" type="matrix" values="0 0 0 0 0 0 0 0 0 0 0 0 0 0 0 0 0 0 127 0" result="hardAlpha"/>
<feOffset/>
<feGaussianBlur stdDeviation="5"/>
<feComposite in2="hardAlpha" operator="arithmetic" k2="-1" k3="1"/>
<feColorMatrix type="matrix" values="0 0 0 0 1 0 0 0 0 1 0 0 0 0 1 0 0 0 0.8 0"/>
<feBlend mode="normal" in2="shape" result="effect1_innerShadow_1723_16204"/>
</filter>
</defs>
</svg>
