<svg width="60" height="60" viewBox="0 0 60 60" fill="none" xmlns="http://www.w3.org/2000/svg">
<g filter="url(#filter0_i_1723_16198)">
<path d="M55.3368 30.4916C57.4174 38.2565 69.2162 53.0489 30.2962 53.0489C-8.62374 53.0489 3.26722 37.9126 5.25569 30.4916C7.42685 22.3889 15.2306 11.6089 30.2962 11.6089C45.3619 11.6089 53.2562 22.7268 55.3368 30.4916Z" fill="#FEEBEC"/>
</g>
<path d="M22.4395 28.5478C22.4395 27.388 23.3797 26.4478 24.5395 26.4478C25.6993 26.4478 26.6395 27.388 26.6395 28.5478V30.7878C26.6395 31.9476 25.6993 32.8878 24.5395 32.8878C23.3797 32.8878 22.4395 31.9476 22.4395 30.7878V28.5478Z" fill="#303030"/>
<path d="M34.4795 28.5478C34.4795 27.388 35.4197 26.4478 36.5795 26.4478C37.7393 26.4478 38.6795 27.388 38.6795 28.5478V30.7878C38.6795 31.9476 37.7393 32.8878 36.5795 32.8878C35.4197 32.8878 34.4795 31.9476 34.4795 30.7878V28.5478Z" fill="#303030"/>
<path d="M49.6101 18.706C48.0602 22.003 44.1437 23.4253 40.8623 21.8828C37.5809 20.3402 36.1773 16.417 37.7272 13.1199C39.2771 9.8229 43.9517 7.3527 47.2331 8.89524C50.5145 10.4378 51.16 15.4089 49.6101 18.706Z" fill="#FF4857"/>
<path d="M23.9825 27.1674C24.2125 27.32 24.2754 27.6303 24.1228 27.8604C23.9702 28.0905 23.6599 28.1532 23.4297 28.0007L22.3376 27.2764C22.1075 27.1237 22.0446 26.8134 22.1973 26.5833C22.3499 26.3532 22.6602 26.2904 22.8903 26.443L23.9825 27.1674Z" fill="#303030"/>
<path d="M37.9815 27.9873C37.7862 28.1825 37.4696 28.1826 37.2744 27.9873C37.0791 27.7921 37.0792 27.4755 37.2744 27.2802L38.2011 26.3535C38.3963 26.1583 38.7129 26.1583 38.9082 26.3535C39.1034 26.5488 39.1034 26.8654 38.9082 27.0606L37.9815 27.9873Z" fill="#303030"/>
<defs>
<filter id="filter0_i_1723_16198" x="2" y="11.6089" width="56.6323" height="41.44" filterUnits="userSpaceOnUse" color-interpolation-filters="sRGB">
<feFlood flood-opacity="0" result="BackgroundImageFix"/>
<feBlend mode="normal" in="SourceGraphic" in2="BackgroundImageFix" result="shape"/>
<feColorMatrix in="SourceAlpha" type="matrix" values="0 0 0 0 0 0 0 0 0 0 0 0 0 0 0 0 0 0 127 0" result="hardAlpha"/>
<feOffset/>
<feGaussianBlur stdDeviation="5"/>
<feComposite in2="hardAlpha" operator="arithmetic" k2="-1" k3="1"/>
<feColorMatrix type="matrix" values="0 0 0 0 1 0 0 0 0 1 0 0 0 0 1 0 0 0 0.8 0"/>
<feBlend mode="normal" in2="shape" result="effect1_innerShadow_1723_16198"/>
</filter>
</defs>
</svg>
