<svg width="60" height="60" viewBox="0 0 60 60" fill="none" xmlns="http://www.w3.org/2000/svg">
<g filter="url(#filter0_i_3495_30830)">
<path d="M55.3368 27.8828C57.4174 35.6476 69.2162 50.44 30.2962 50.44C-8.62374 50.44 3.26722 35.3037 5.25569 27.8828C7.42685 19.78 15.2306 9 30.2962 9C45.3619 9 53.2562 20.1179 55.3368 27.8828Z" fill="#EEFFF4"/>
</g>
<path d="M42 28L36 30.5L41.5 32" stroke="#653E1E" stroke-width="1.5" stroke-linecap="round" stroke-linejoin="round"/>
<path d="M18 28L24 30.5L18.5 32" stroke="#653E1E" stroke-width="1.5" stroke-linecap="round" stroke-linejoin="round"/>
<path d="M48.1385 22.6125C47.7717 23.0662 47.096 23.1108 46.6727 22.7093L39.2644 15.682C38.886 15.323 38.847 14.7334 39.175 14.3278L42.8201 9.81954C43.1673 9.39007 43.797 9.32342 44.2265 9.67066L52.1419 16.0706C52.5714 16.4178 52.638 17.0475 52.2908 17.477L48.1385 22.6125Z" fill="#653E1E"/>
<path d="M36.12 11.166C37.7826 11.3355 39.6988 12.3648 39.4341 14.9621C39.1693 17.5593 37.0848 18.1808 35.4222 18.0113C33.7596 17.8419 30.204 15.0414 30.3197 13.9064C30.4354 12.7713 34.4574 10.9965 36.12 11.166Z" fill="url(#paint0_linear_3495_30830)"/>
<path d="M38.5436 19.0659C37.6378 18.0396 37.0575 16.3551 38.6608 14.9401C40.2641 13.5251 41.8634 14.3102 42.7692 15.3366C43.675 16.3629 44.2566 20.0241 43.5559 20.6425C42.8553 21.2609 39.4494 20.0922 38.5436 19.0659Z" fill="url(#paint1_linear_3495_30830)"/>
<path d="M42.5365 12.9547C41.9953 14.1265 40.7625 15.2678 38.9319 14.4224C37.1013 13.577 37.1706 11.8985 37.7117 10.7266C38.2529 9.55478 41.1909 7.66072 41.9909 8.03017C42.7909 8.39962 43.0777 11.7828 42.5365 12.9547Z" fill="url(#paint2_linear_3495_30830)"/>
<path d="M34.043 14.3529L38.1661 14.6875M38.1661 14.6875L40.6719 10.9164M38.1661 14.6875L41.2952 17.9599" stroke="#289D74" stroke-width="0.5" stroke-linejoin="round"/>
<defs>
<filter id="filter0_i_3495_30830" x="2" y="9" width="56.6318" height="41.44" filterUnits="userSpaceOnUse" color-interpolation-filters="sRGB">
<feFlood flood-opacity="0" result="BackgroundImageFix"/>
<feBlend mode="normal" in="SourceGraphic" in2="BackgroundImageFix" result="shape"/>
<feColorMatrix in="SourceAlpha" type="matrix" values="0 0 0 0 0 0 0 0 0 0 0 0 0 0 0 0 0 0 127 0" result="hardAlpha"/>
<feOffset/>
<feGaussianBlur stdDeviation="5"/>
<feComposite in2="hardAlpha" operator="arithmetic" k2="-1" k3="1"/>
<feColorMatrix type="matrix" values="0 0 0 0 1 0 0 0 0 1 0 0 0 0 1 0 0 0 0.8 0"/>
<feBlend mode="normal" in2="shape" result="effect1_innerShadow_3495_30830"/>
</filter>
<linearGradient id="paint0_linear_3495_30830" x1="30.3534" y1="13.5755" x2="39.1797" y2="12.8587" gradientUnits="userSpaceOnUse">
<stop stop-color="#3CC890"/>
<stop offset="1" stop-color="#2CB283"/>
</linearGradient>
<linearGradient id="paint1_linear_3495_30830" x1="43.3517" y1="20.8228" x2="37.6444" y2="16.3466" gradientUnits="userSpaceOnUse">
<stop stop-color="#3CC890"/>
<stop offset="1" stop-color="#2CB283"/>
</linearGradient>
<linearGradient id="paint2_linear_3495_30830" x1="42.2241" y1="8.13786" x2="40.532" y2="14.7646" gradientUnits="userSpaceOnUse">
<stop stop-color="#3CC890"/>
<stop offset="1" stop-color="#2CB283"/>
</linearGradient>
</defs>
</svg>
